<?xml version="1.0" encoding="utf-8"?>
<!-- Generator: Adobe Illustrator 19.1.0, SVG Export Plug-In . SVG Version: 6.00 Build 0)  -->
<svg version="1.1" xmlns="http://www.w3.org/2000/svg" xmlns:xlink="http://www.w3.org/1999/xlink" x="0px" y="0px"
	 viewBox="0 0 1076 228" style="enable-background:new 0 0 1076 228;" xml:space="preserve">
<style type="text/css">
	.st0{display:none;fill:#5D5E5E;}
	.st1{fill:#FFFFFF;}
	.st2{fill:#821519;}
	.st3{fill:#36494E;}
	.st4{fill:#811518;}
</style>
<g id="Layer_1">
</g>
<g id="Layer_3">
</g>
<g id="Layer_5">
</g>
<g id="Layer_6">
</g>
<g id="Layer_4">
	<g>
		<path class="st4" d="M459.3,181h-210c-8.7,0-15.7-7-15.7-15.7V62.7c0-8.7,7-15.7,15.7-15.7h210c8.7,0,15.7,7,15.7,15.7v102.6
			C475,174,468,181,459.3,181z"/>
		<g>
			<g>
				<path class="st1" d="M267.5,131.1c0,12.2,6.4,19.9,18.1,19.9c8,0,12.2-2.2,17.2-7.3l9.1,8.5c-7.3,7.3-14.1,11.1-26.6,11.1
					c-17.8,0-31.9-9.4-31.9-36.4c0-23,11.9-36.3,30.1-36.3c19,0,30.1,14,30.1,34.2v6.3H267.5z M297.4,111.5c-2.2-5.3-7.3-9-14-9
					s-11.9,3.6-14.1,9c-1.4,3.2-1.7,5.3-1.8,9.7h31.9C299.2,116.8,298.8,114.7,297.4,111.5z"/>
				<path class="st1" d="M366.2,162.4v-7.6c-5.3,6.4-11.1,8.4-18.8,8.4c-7.1,0-13.4-2.4-17.4-6.3c-7.1-7.1-8-19.3-8-30.1
					c0-10.8,0.8-22.8,8-30c3.9-3.9,10.1-6.3,17.2-6.3c7.6,0,13.4,1.8,18.6,8V62.7h14.3v99.7H366.2z M351.2,103.3
					c-12.9,0-14.8,10.9-14.8,23.5c0,12.6,2,23.7,14.8,23.7s14.7-11.1,14.7-23.7C365.9,114.3,364.1,103.3,351.2,103.3z"/>
				<path class="st1" d="M438.7,162.4v-7.1c-4.9,5.3-11.8,8-18.9,8c-7.3,0-13.3-2.4-17.5-6.4c-5.5-5.3-7.1-12-7.1-20V91.4h14.3v43.3
					c0,11.1,6.3,15.8,14.3,15.8c8,0,14.7-4.9,14.7-15.8V91.4h14.3v71H438.7z"/>
				<path class="st3" d="M581.5,162.4v-43.3c0-11.1-6.3-15.8-14.3-15.8c-7.7,0-14.7,4.9-14.7,15.1v44h-14.3v-43.3
					c0-11.1-6.3-15.8-14.3-15.8c-8,0-14.7,4.9-14.7,15.8v43.3H495v-71h14v7.1c4.8-5.2,11.8-8,18.9-8c8.8,0,15.7,3.5,20.2,10.4
					c5.7-7,12.9-10.4,22.3-10.4c7.3,0,13.7,2.4,17.9,6.4c5.5,5.3,7.6,12,7.6,20v45.4H581.5z"/>
				<path class="st3" d="M649,162.4V156c-5.2,5.2-10.1,7.3-18.9,7.3c-8.8,0-14.7-2.1-19-6.4c-3.6-3.8-5.6-9.2-5.6-15.3
					c0-11.9,8.3-20.4,24.5-20.4h18.8v-5c0-9-4.5-13.3-15.5-13.3c-7.8,0-11.6,1.8-15.5,6.9l-9.4-8.8c6.7-7.8,13.7-10.2,25.5-10.2
					c19.5,0,29.3,8.3,29.3,24.4v47.5H649z M648.7,131.1H632c-8.4,0-12.7,3.8-12.7,10.2c0,6.4,4.1,10.1,13,10.1
					c5.5,0,9.5-0.4,13.3-4.1c2.1-2.1,3.1-5.5,3.1-10.5V131.1z"/>
				<path class="st3" d="M697,162.4c-13.6,0-19.5-9.1-19.5-19.6V62.7h14.3V142c0,5.5,2,8.3,7.7,8.3h6.3v12.2H697z"/>
				<path class="st3" d="M733.5,162.4c-13.6,0-19.5-9.1-19.5-19.6V62.7h14.3V142c0,5.5,2,8.3,7.7,8.3h6.3v12.2H733.5z"/>
			</g>
		</g>
	</g>
</g>
<g id="Layer_2">
</g>
</svg>
